# xmcd CD database file
#
# Track frame offsets:
#	150
#	14337
#	28005
#	40757
#	52679
#	65661
#	79693
#	93242
#	106749
#	119332
#
# Disc length: 1750 seconds
#
# Revision: 2
# Processed by: cddbd v1.4PL0 Copyright (c) Steve Scherf et al.
# Submitted via: CDex 1.50Beta7
#
DISCID=7006d40a
DTITLE=John Lee Hooker - The Best Of John Lee Hooker
DYEAR=2001
DGENRE=Blues
TTITLE0=Boogie Chillen
TTITLE1=Hobo Blues
TTITLE2=Weeping Willow Boogie
TTITLE3=Let Your Daddy Ride
TTITLE4=Rock House Boogie
TTITLE5=I'm In the Mood
TTITLE6=Crawlin' Kingsnake
TTITLE7=John L's House Rent Boogie
TTITLE8=Huckle Up Baby
TTITLE9=Rock N' Roll
EXTD=YEAR: 2001
EXTT0=
EXTT1=
EXTT2=
EXTT3=
EXTT4=
EXTT5=
EXTT6=
EXTT7=
EXTT8=
EXTT9=
PLAYORDER=
